<svg xmlns="http://www.w3.org/2000/svg" height="2048" preserveAspectRatio="none" style="display: block;" version="1.1" viewBox="0 0 2048 2048" width="2048">
<path d="M 0 0 L 2048 0 L 2048 2048 L 0 2048 L 0 0 z" fill="rgb(11,11,13)" transform="translate(0,0)"></path>
<path d="M 1013.19 701.418 C 1056.29 697.79 1101.47 712.954 1134.91 740.161 C 1172.14 770.694 1195.95 814.587 1201.23 862.449 C 1206.64 915.779 1189.72 959.246 1156.83 999.965 L 1030.6 874.732 L 1023.61 868.166 C 1009.99 880.03 991.07 900.241 977.669 913.668 L 891.911 999.65 C 865.429 971.351 850.435 934.232 847.506 895.759 C 843.566 846.617 859.604 797.962 891.995 760.796 C 923.333 724.54 965.735 704.853 1013.19 701.418 z" fill="rgb(239,199,141)" transform="translate(0,0)"></path>
<path d="M 464.649 1148.29 C 471.853 1147.66 479.237 1147.47 486.482 1147.95 C 553.794 1152.4 589.802 1221.76 565.565 1282.03 C 561.695 1291.66 557.066 1298.6 551.089 1307.04 C 557.879 1314.89 566.102 1321.92 573.505 1329.45 C 568.314 1337.42 565.966 1341.36 557.709 1346.85 C 546.056 1341.74 538.29 1334.73 528.861 1326.36 L 521.244 1329.46 C 488.473 1342.82 450.877 1343.06 420.973 1322.36 C 400.748 1308.21 387.112 1286.48 383.173 1262.12 C 373.316 1204.31 406.801 1157.53 464.649 1148.29 z" fill="rgb(239,199,141)" transform="translate(0,0)"></path>
<path d="M 466.833 1176.32 C 509.348 1172.63 539.927 1197.58 542.241 1241.44 C 543.099 1257.72 538.385 1271.49 528.584 1284.64 C 510.36 1269.35 505.862 1254.6 490.488 1282.95 C 494.35 1288.41 499.922 1294.97 504.208 1300.29 C 505.2 1301.79 504.955 1301.55 505.494 1303.34 C 502.421 1306.1 493.417 1308.78 489.231 1309.72 C 473.3 1313.41 456.555 1310.5 442.804 1301.65 C 427.496 1291.79 417.733 1276.74 413.924 1259.03 C 409.784 1240.17 413.389 1220.45 423.929 1204.27 C 434.203 1188.71 448.752 1179.94 466.833 1176.32 z" fill="rgb(11,11,13)" transform="translate(0,0)"></path>
<path d="M 1521.36 1149.44 C 1547.41 1149.72 1605.71 1145.4 1627.65 1156.88 C 1673.26 1180.74 1670.27 1250.58 1615.9 1267.49 L 1664.05 1337.39 L 1640.25 1337.15 L 1628.14 1337.22 C 1612.92 1316.23 1598.6 1293 1583.43 1271.42 L 1551.1 1271.26 L 1551.16 1337.41 L 1521.32 1337.4 L 1521.36 1149.44 z" fill="rgb(239,199,141)" transform="translate(0,0)"></path>
<path d="M 1551.16 1177.83 C 1567.03 1177.45 1588.45 1176.79 1604.01 1178.78 C 1630.02 1182.1 1635.67 1216.49 1620.19 1234.44 C 1606.18 1244.59 1599.1 1243.53 1582.22 1243.55 C 1571.98 1243.57 1561.43 1243.61 1551.16 1243.58 L 1551.16 1177.83 z" fill="rgb(11,11,13)" transform="translate(0,0)"></path>
<path d="M 1297.51 1149.61 L 1423.77 1149.7 L 1423.72 1177.65 L 1327.52 1177.85 L 1327.64 1230.35 C 1356.43 1229.78 1386.59 1230.51 1415.55 1230.52 L 1415.44 1258.53 C 1389.81 1258.19 1364.18 1258.21 1338.55 1258.59 C 1334.1 1258.47 1333.27 1258.36 1329 1259.27 C 1326.66 1262.81 1327.6 1302.77 1327.62 1310.02 L 1425.74 1309.99 C 1425.8 1318.97 1425.6 1328.18 1425.51 1337.18 L 1297.82 1337.31 L 1297.51 1149.61 z" fill="rgb(239,199,141)" transform="translate(0,0)"></path>
<path d="M 789.503 1149.37 L 819.481 1149.42 C 819.252 1172.31 819.206 1195.21 819.346 1218.1 C 819.394 1251.78 824.383 1292.36 798.244 1317.83 C 769.777 1345.76 715.126 1345.68 687.205 1316.98 C 660.983 1290.02 666.932 1244.43 667.14 1209.25 L 667.076 1149.49 L 696.812 1149.76 L 696.858 1223.97 C 696.768 1240.68 695.629 1258.41 698.18 1274.86 C 705.679 1323.2 780.482 1323.48 788 1274.94 C 790.442 1259.18 789.476 1243.42 789.526 1227.49 C 789.705 1201.45 789.697 1175.41 789.503 1149.37 z" fill="rgb(239,199,141)" transform="translate(0,0)"></path>
<path d="M 1031.57 1149.29 L 1063.51 1149.62 C 1082.68 1197.19 1101.33 1246.82 1120.99 1293.89 C 1128.48 1277.14 1135.71 1257.46 1142.6 1240.24 L 1178.93 1149.41 L 1211.04 1149.57 C 1206.37 1160.48 1201.85 1171.75 1197.31 1182.75 C 1175.59 1234.11 1154.18 1285.6 1133.09 1337.23 L 1108.89 1337.06 L 1056.62 1210.37 C 1048.64 1190.81 1038.68 1168.83 1031.57 1149.29 z" fill="rgb(239,199,141)" transform="translate(0,0)"></path>
<path d="M 1023.98 954.958 C 1027.92 958.575 1031.99 962.434 1035.69 966.297 C 1059.32 990.924 1085.79 1014.17 1108.88 1039.19 C 1081.79 1053.38 1056.8 1059.54 1026.5 1060.94 C 993.157 1061.37 968.882 1053.29 939.509 1039.21 C 966.754 1011.99 996.286 981.066 1023.98 954.958 z" fill="rgb(239,199,141)" transform="translate(0,0)"></path>
<path d="M 927.266 1149.51 L 949.594 1149.22 C 949.537 1192.63 949.696 1287.04 949.414 1336.11 C 948.98 1336.58 948.546 1337.06 948.112 1337.53 L 943.434 1337.54 C 935.675 1337.18 927.162 1337.3 919.34 1337.24 L 919.421 1215.42 C 919.405 1194.92 918.699 1171.05 919.528 1150.82 C 922.631 1148.9 922.951 1149.59 927.266 1149.51 z" fill="rgb(239,199,141)" transform="translate(0,0)"></path>
<metadata><recraft-signature>{"signed_by": "recraft", "signature_b64": "RqtnULreuPO5VeEOcUHZ8zniwb9nhqVi6HCp+hyqsAUyrjZH68lTJrSmhFO/Jgw0nZvfKKTUQQUurIzsPvGmCg==", "signing_algo": "Ed25519", "generation_timestamp": 1781541129, "identifier": "fac01ff1-dfd0-40f9-858f-c122bfeea312"}</recraft-signature></metadata></svg>